<?xml version="1.0" encoding="utf-8"?>
<!DOCTYPE svg PUBLIC "-//W3C//DTD SVG 20010904//EN" "http://www.w3.org/TR/2001/REC-SVG-20010904/DTD/svg10.dtd">
<svg xmlns="http://www.w3.org/2000/svg" xml:space="preserve"
  xmlns:xlink="http://www.w3.org/1999/xlink" width="222" height="39.714" viewBox="0 0 222 39.714">
<desc></desc>
<rect x="0" y="0" width="222" height="39.714" style="fill: transparent;" />
<line fill="none" style="stroke:#000000; stroke-width:2;" x1="1" y1="0" x2="1" y2="30"/>
<line fill="none" style="stroke:#000000; stroke-width:1;" x1="3.5" y1="0" x2="3.5" y2="30"/>
<line fill="none" style="stroke:#000000; stroke-width:1;" x1="6.5" y1="0" x2="6.5" y2="30"/>
<line fill="none" style="stroke:#000000; stroke-width:1;" x1="11.5" y1="0" x2="11.5" y2="30"/>
<line fill="none" style="stroke:#000000; stroke-width:3;" x1="14.5" y1="0" x2="14.5" y2="30"/>
<line fill="none" style="stroke:#000000; stroke-width:2;" x1="18" y1="0" x2="18" y2="30"/>
<line fill="none" style="stroke:#000000; stroke-width:1;" x1="22.5" y1="0" x2="22.5" y2="30"/>
<line fill="none" style="stroke:#000000; stroke-width:2;" x1="25" y1="0" x2="25" y2="30"/>
<line fill="none" style="stroke:#000000; stroke-width:1;" x1="28.5" y1="0" x2="28.5" y2="30"/>
<line fill="none" style="stroke:#000000; stroke-width:2;" x1="34" y1="0" x2="34" y2="30"/>
<line fill="none" style="stroke:#000000; stroke-width:1;" x1="39.5" y1="0" x2="39.5" y2="30"/>
<line fill="none" style="stroke:#000000; stroke-width:1;" x1="41.5" y1="0" x2="41.5" y2="30"/>
<line fill="none" style="stroke:#000000; stroke-width:2;" x1="45" y1="0" x2="45" y2="30"/>
<line fill="none" style="stroke:#000000; stroke-width:1;" x1="50.5" y1="0" x2="50.5" y2="30"/>
<line fill="none" style="stroke:#000000; stroke-width:1;" x1="52.5" y1="0" x2="52.5" y2="30"/>
<line fill="none" style="stroke:#000000; stroke-width:1;" x1="55.5" y1="0" x2="55.5" y2="30"/>
<line fill="none" style="stroke:#000000; stroke-width:2;" x1="58" y1="0" x2="58" y2="30"/>
<line fill="none" style="stroke:#000000; stroke-width:1;" x1="61.5" y1="0" x2="61.5" y2="30"/>
<line fill="none" style="stroke:#000000; stroke-width:1;" x1="66.5" y1="0" x2="66.5" y2="30"/>
<line fill="none" style="stroke:#000000; stroke-width:2;" x1="69" y1="0" x2="69" y2="30"/>
<line fill="none" style="stroke:#000000; stroke-width:1;" x1="72.5" y1="0" x2="72.5" y2="30"/>
<line fill="none" style="stroke:#000000; stroke-width:2;" x1="78" y1="0" x2="78" y2="30"/>
<line fill="none" style="stroke:#000000; stroke-width:1;" x1="83.5" y1="0" x2="83.5" y2="30"/>
<line fill="none" style="stroke:#000000; stroke-width:1;" x1="85.5" y1="0" x2="85.5" y2="30"/>
<line fill="none" style="stroke:#000000; stroke-width:2;" x1="89" y1="0" x2="89" y2="30"/>
<line fill="none" style="stroke:#000000; stroke-width:2;" x1="92" y1="0" x2="92" y2="30"/>
<line fill="none" style="stroke:#000000; stroke-width:2;" x1="96" y1="0" x2="96" y2="30"/>
<line fill="none" style="stroke:#000000; stroke-width:1;" x1="99.5" y1="0" x2="99.5" y2="30"/>
<line fill="none" style="stroke:#000000; stroke-width:4;" x1="104" y1="0" x2="104" y2="30"/>
<line fill="none" style="stroke:#000000; stroke-width:1;" x1="107.5" y1="0" x2="107.5" y2="30"/>
<line fill="none" style="stroke:#000000; stroke-width:1;" x1="110.5" y1="0" x2="110.5" y2="30"/>
<line fill="none" style="stroke:#000000; stroke-width:4;" x1="115" y1="0" x2="115" y2="30"/>
<line fill="none" style="stroke:#000000; stroke-width:1;" x1="119.5" y1="0" x2="119.5" y2="30"/>
<line fill="none" style="stroke:#000000; stroke-width:1;" x1="121.5" y1="0" x2="121.5" y2="30"/>
<line fill="none" style="stroke:#000000; stroke-width:4;" x1="126" y1="0" x2="126" y2="30"/>
<line fill="none" style="stroke:#000000; stroke-width:1;" x1="130.5" y1="0" x2="130.5" y2="30"/>
<line fill="none" style="stroke:#000000; stroke-width:2;" x1="133" y1="0" x2="133" y2="30"/>
<line fill="none" style="stroke:#000000; stroke-width:1;" x1="136.5" y1="0" x2="136.5" y2="30"/>
<line fill="none" style="stroke:#000000; stroke-width:1;" x1="138.5" y1="0" x2="138.5" y2="30"/>
<line fill="none" style="stroke:#000000; stroke-width:1;" x1="143.5" y1="0" x2="143.5" y2="30"/>
<line fill="none" style="stroke:#000000; stroke-width:1;" x1="146.5" y1="0" x2="146.5" y2="30"/>
<line fill="none" style="stroke:#000000; stroke-width:2;" x1="149" y1="0" x2="149" y2="30"/>
<line fill="none" style="stroke:#000000; stroke-width:1;" x1="154.5" y1="0" x2="154.5" y2="30"/>
<line fill="none" style="stroke:#000000; stroke-width:2;" x1="158" y1="0" x2="158" y2="30"/>
<line fill="none" style="stroke:#000000; stroke-width:1;" x1="163.5" y1="0" x2="163.5" y2="30"/>
<line fill="none" style="stroke:#000000; stroke-width:1;" x1="165.5" y1="0" x2="165.5" y2="30"/>
<line fill="none" style="stroke:#000000; stroke-width:1;" x1="170.5" y1="0" x2="170.5" y2="30"/>
<line fill="none" style="stroke:#000000; stroke-width:2;" x1="174" y1="0" x2="174" y2="30"/>
<line fill="none" style="stroke:#000000; stroke-width:1;" x1="176.5" y1="0" x2="176.5" y2="30"/>
<line fill="none" style="stroke:#000000; stroke-width:4;" x1="181" y1="0" x2="181" y2="30"/>
<line fill="none" style="stroke:#000000; stroke-width:1;" x1="185.5" y1="0" x2="185.5" y2="30"/>
<line fill="none" style="stroke:#000000; stroke-width:1;" x1="187.5" y1="0" x2="187.5" y2="30"/>
<line fill="none" style="stroke:#000000; stroke-width:4;" x1="191" y1="0" x2="191" y2="30"/>
<line fill="none" style="stroke:#000000; stroke-width:1;" x1="195.5" y1="0" x2="195.5" y2="30"/>
<line fill="none" style="stroke:#000000; stroke-width:1;" x1="198.5" y1="0" x2="198.5" y2="30"/>
<line fill="none" style="stroke:#000000; stroke-width:2;" x1="203" y1="0" x2="203" y2="30"/>
<line fill="none" style="stroke:#000000; stroke-width:1;" x1="206.5" y1="0" x2="206.5" y2="30"/>
<line fill="none" style="stroke:#000000; stroke-width:2;" x1="210" y1="0" x2="210" y2="30"/>
<line fill="none" style="stroke:#000000; stroke-width:3;" x1="215.5" y1="0" x2="215.5" y2="30"/>
<line fill="none" style="stroke:#000000; stroke-width:1;" x1="218.5" y1="0" x2="218.5" y2="30"/>
<line fill="none" style="stroke:#000000; stroke-width:2;" x1="221" y1="0" x2="221" y2="30"/>
  <!-- <text x="111" y="37.763" text-anchor="middle" style="font-family: Tahoma; font-size: 9px;
  stroke: none; fill:#000000;">Menneen -->
  <!-- Tuulahdus</text> -->
</svg>