<?xml version="1.0" standalone="no"?>
<!DOCTYPE svg PUBLIC "-//W3C//DTD SVG 20010904//EN" "http://www.w3.org/TR/2001/REC-SVG-20010904/DTD/svg10.dtd">
<svg version="1.0" xmlns="http://www.w3.org/2000/svg"
  width="88.000000pt" height="40.000000pt" viewBox="0 0 88.000000 40.000000"
  preserveAspectRatio="xMidYMid meet">

  <g transform="translate(0.000000,40.000000) scale(0.100000,-0.100000)"
    fill="#4B3329" stroke="none">
    <path
      d="M134 382 c6 -9 1 -12 -16 -9 -40 8 -68 -9 -68 -41 0 -44 57 -149 88
-164 44 -22 35 -49 -27 -81 -30 -15 -65 -27 -78 -27 -13 0 -23 -4 -23 -9 0 -9
138 -22 242 -23 44 0 73 7 125 32 64 30 79 32 258 45 105 7 200 17 213 22 23
9 23 9 -11 27 -29 16 -39 17 -67 7 -43 -14 -316 -15 -325 0 -9 14 20 45 58 60
68 28 125 70 136 100 9 25 8 30 -3 26 -7 -3 -59 -19 -115 -37 -56 -17 -123
-44 -149 -61 -25 -16 -49 -29 -52 -29 -9 0 -79 61 -139 120 -30 30 -51 49 -47
42z" />
  </g>
</svg>